<?xml version="1.0" standalone="no"?>
<!DOCTYPE svg PUBLIC "-//W3C//DTD SVG 1.1//EN" "http://www.w3.org/Graphics/SVG/1.1/DTD/svg11.dtd" >
<svg>
<metadata>
Created by FontForge 20090914 at Thu Feb 23 16:26:06 2012
 By ffonts
(C) 1999 Ray Larabie rlarabie@hotmail.com
</metadata>
<defs>
<font id="Ethnocentric" horiz-adv-x="305" >
  <font-face 
    font-family="Ethnocentric"
    font-weight="400"
    font-stretch="normal"
    units-per-em="1000"
    panose-1="0 0 4 0 0 0 0 0 0 0"
    ascent="800"
    descent="-200"
    x-height="725"
    cap-height="725"
    bbox="-20 -323 1685 880"
    underline-thickness="20"
    underline-position="-123"
    unicode-range="U+0020-U+2026"
  />
<missing-glyph horiz-adv-x="500" 
d="M63 0v800h375v-800h-375zM125 63h250v675h-250v-675z" />
    <glyph glyph-name=".notdef" horiz-adv-x="500" 
d="M63 0v800h375v-800h-375zM125 63h250v675h-250v-675z" />
    <glyph glyph-name=".null" horiz-adv-x="0" 
 />
    <glyph glyph-name="nonmarkingreturn" horiz-adv-x="413" 
 />
    <glyph glyph-name="space" unicode=" " horiz-adv-x="413" 
 />
    <glyph glyph-name="glyph4" horiz-adv-x="1008" 
 />
    <glyph glyph-name="glyph5" horiz-adv-x="1008" 
 />
    <glyph glyph-name="glyph6" horiz-adv-x="1098" 
 />
    <glyph glyph-name="glyph7" horiz-adv-x="974" 
 />
    <glyph glyph-name="glyph8" horiz-adv-x="974" 
 />
    <glyph glyph-name="exclam" unicode="!" horiz-adv-x="321" 
d="M277 725v-194v-97l-25 -213h-174l-25 213v97v194h224zM280 95q0 -41 -32 -67t-81 -26q-50 0 -82 26t-32 67q0 42 32 68t82 26q49 0 81 -26t32 -68z" />
    <glyph glyph-name="quotedbl" unicode="&#x22;" horiz-adv-x="502" 
d="M502 759l-60 -272h-173v272h233zM265 759l-59 -272h-173v272h232z" />
    <glyph glyph-name="numbersign" unicode="#" horiz-adv-x="574" 
d="M574 667l-41 -101h-97l-24 -59h97l-41 -101h-97l-44 -110h-105l45 110h-72l-44 -110h-105l45 110h-90l41 101h90l23 59h-89l41 101h89l39 96h105l-39 -96h71l39 96h105l-39 -96h97zM331 566h-71l-24 -59h72z" />
    <glyph glyph-name="dollar" unicode="$" horiz-adv-x="568" 
d="M521 769l-99 -128h-107v-31h11q88 0 147 -44t59 -116t-59 -114.5t-147 -42.5h-11v-40h-64v40h-214l99 128h115v61h-15q-81 0 -136 37q-58 41 -58 107q0 65 58 106q55 37 136 37h15v33h64v-33h206zM251 610v31h-15q-24 0 -24 -16q0 -15 24 -15h15zM386 452q0 30 -60 30
h-11v-61h11q60 0 60 31z" />
    <glyph glyph-name="percent" unicode="%" horiz-adv-x="595" 
d="M278 669q0 -85 -76 -115q-24 -9 -46 -9q-23 0 -48 10q-74 31 -74 114t74 113q25 11 48 11q22 0 46 -9q76 -30 76 -115zM189 666q0 8 -31 8q-30 0 -30 -8t30 -8q31 0 31 8zM555 694l-318 -366h-182l320 366h180zM568 356q0 -85 -77 -115q-23 -9 -45 -9q-24 0 -49 11
q-73 30 -73 113t73 113q25 11 49 11q22 0 45 -9q77 -30 77 -115zM478 353q0 8 -30 8t-30 -8t30 -8t30 8z" />
    <glyph glyph-name="ampersand" unicode="&#x26;" horiz-adv-x="867" 
d="M867 454l-134 -187h-52v-76h186l-134 -186h-368q-102 0 -186 31q-96 35 -141 103q-30 44 -30 92q0 72 64 130q-64 60 -64 134q0 49 30 94q45 69 140 105q84 32 187 32h195l-134 -187q-90 0 -106 -1q-78 -8 -78 -41q0 -24 41 -35q28 -8 61 -8h523zM465 191v76h-121
q-27 0 -49 -7q-31 -10 -31 -31q0 -38 80 -38h121z" />
    <glyph glyph-name="quotesingle" unicode="'" horiz-adv-x="252" 
d="M252 759l-60 -272h-173v272h233z" />
    <glyph glyph-name="parenleft" unicode="(" horiz-adv-x="446" 
d="M446 815l-77 -107q-109 0 -155 -15q-74 -25 -74 -101v-580q0 -86 105 -110q48 -12 189 -12l-77 -106q-150 0 -240 50q-105 60 -105 178v580q0 127 96 180q79 43 241 43h97z" />
    <glyph glyph-name="parenright" unicode=")" horiz-adv-x="531" 
d="M480 12q0 -118 -104 -178q-90 -50 -240 -50l-77 106q141 0 189 12q105 24 105 110v580q0 76 -75 101q-45 15 -154 15l-77 107h96q163 0 242 -43q95 -53 95 -180v-580z" />
    <glyph glyph-name="asterisk" unicode="*" horiz-adv-x="693" 
d="M677 477l-72 -124h-133l97 -165h-166l-69 117l-162 -135l-54 130l63 53h-151l72 124h132l-83 141h166l60 -102l147 123l54 -130l-37 -32h136z" />
    <glyph glyph-name="plus" unicode="+" horiz-adv-x="672" 
d="M647 274h-199v-117h-224v117h-59l-134 187h193v111h224v-111h64z" />
    <glyph glyph-name="comma" unicode="," horiz-adv-x="300" 
d="M268 219l-60 -272h-173v272h233z" />
    <glyph glyph-name="hyphen" unicode="-" horiz-adv-x="623" 
d="M568 274h-395l-135 187h395z" />
    <glyph glyph-name="hyphen" unicode="&#x2010;" horiz-adv-x="623" 
d="M568 274h-395l-135 187h395z" />
    <glyph glyph-name="period" unicode="." horiz-adv-x="335" 
d="M285 95q0 -41 -32 -67t-82 -26t-82 26t-32 67q0 42 32 68t82 26t82 -26t32 -68z" />
    <glyph glyph-name="slash" unicode="/" horiz-adv-x="1028" 
d="M1028 725l-771 -722h-269l779 722h261z" />
    <glyph glyph-name="zero" unicode="0" horiz-adv-x="988" 
d="M957 371q0 -158 -123.5 -262.5t-311.5 -104.5h-55q-189 0 -312.5 104.5t-123.5 262.5t122.5 256t313.5 98h55q191 0 313 -98t122 -256zM467 538q-93 0 -153 -49.5t-60 -126.5t60 -124.5t153 -47.5h55q93 0 153 47.5t60 124.5t-60.5 126.5t-152.5 49.5h-55z" />
    <glyph glyph-name="one" unicode="1" horiz-adv-x="499" 
d="M446 4h-223v534h-41l-135 187h399v-721z" />
    <glyph glyph-name="two" unicode="2" horiz-adv-x="944" 
d="M919 190l-144 -186h-740v242q0 105 94 172q88 62 216 62h281q41 0 41 29t-41 29h-457l-144 187h601q121 0 204 -56q88 -60 88 -160q0 -99 -88 -159q-83 -56 -204 -56h-281q-32 0 -60 -9q-39 -13 -39 -39v-56h673z" />
    <glyph glyph-name="three" unicode="3" horiz-adv-x="1061" 
d="M957 361q64 -58 64 -130q0 -51 -33 -97q-46 -65 -140 -99q-83 -30 -184 -30h-480l-144 186h646q35 0 66 7q46 10 46 31t-46 31q-31 7 -66 7h-287l-145 187h432q28 0 51 8q33 12 33 35t-33 34q-23 8 -51 8h-502l-144 187h624q102 0 184 -31q94 -35 140 -101q33 -47 33 -99
q0 -74 -64 -134z" />
    <glyph glyph-name="four" unicode="4" horiz-adv-x="1058" 
d="M1048 399l-144 -187h-48v-208h-224v208h-623v182l572 331h275v-326h192zM632 399v159l-274 -159h274z" />
    <glyph glyph-name="five" unicode="5" horiz-adv-x="896" 
d="M849 725l-145 -187h-450v-58h307q132 0 219 -64q91 -68 91 -176t-91 -173q-87 -63 -219 -63h-552l145 186h407q36 0 64 12q35 14 35 41t-36 41q-27 10 -63 10h-528v431h816z" />
    <glyph glyph-name="six" unicode="6" horiz-adv-x="998" 
d="M925 725l-144 -187h-318q-105 0 -164 -58h435q114 0 181 -73q62 -67 62 -164q0 -98 -62 -165q-67 -74 -181 -74h-271q-189 0 -312.5 104.5t-123.5 262.5t122.5 256t313.5 98h462zM734 190q47 0 47 53q0 21 -10 38q-14 21 -37 21h-472q44 -112 201 -112h271z" />
    <glyph glyph-name="seven" unicode="7" horiz-adv-x="801" 
d="M297 5h-297l478 533h-343l-144 187h654q64 0 107 -25q49 -28 49 -79q0 -43 -39 -88z" />
    <glyph glyph-name="eight" unicode="8" horiz-adv-x="1070" 
d="M954 361q72 -57 72 -131q0 -71 -63 -128q-56 -51 -142 -76q-72 -21 -157 -21h-267q-85 0 -157 21q-86 24 -142 76q-62 57 -62 128q0 74 72 132q-72 59 -72 136q0 53 36 101q47 65 141 98q83 29 184 29h267q85 0 158 -21q87 -26 144 -78q64 -58 64 -130q0 -77 -76 -136z
M686 454q28 0 52 8q32 12 32 35t-33 34q-23 8 -51 8h-311q-28 0 -51 -8q-33 -11 -33 -34t32 -35q24 -8 52 -8h311zM686 191q80 0 80 38q0 21 -32 31q-22 7 -48 7h-311q-26 0 -48 -7q-32 -10 -32 -31q0 -38 80 -38h311z" />
    <glyph glyph-name="nine" unicode="9" horiz-adv-x="1022" 
d="M996 359q0 -159 -122.5 -257t-313.5 -98h-463l145 187h318q105 0 163 59h-435q-113 0 -181 73q-61 66 -61 164q0 97 61 164q68 75 181 75h272q189 0 312.5 -105t123.5 -262zM761 427q-45 112 -201 112h-272q-47 0 -47 -52q0 -21 11 -39q13 -21 36 -21h473z" />
    <glyph glyph-name="colon" unicode=":" horiz-adv-x="306" 
d="M272 391q0 -42 -32 -68t-82 -26t-82 26t-32 68q0 41 32 67t82 26t82 -26t32 -67zM272 95q0 -41 -32 -67t-82 -26t-82 26t-32 67q0 42 32 68t82 26t82 -26t32 -68z" />
    <glyph glyph-name="semicolon" unicode=";" horiz-adv-x="324" 
d="M279 391q0 -42 -32 -68t-82 -26t-82 26t-32 68q0 41 32 67t82 26t82 -26t32 -67zM281 268l-76 -288h-158v288h234z" />
    <glyph glyph-name="less" unicode="&#x3c;" horiz-adv-x="951" 
d="M915 96l-797 225q-85 24 -85 88q0 65 85 89l797 225v-197l-413 -117l413 -117v-196z" />
    <glyph glyph-name="equal" unicode="=" horiz-adv-x="629" 
d="M591 393h-543v147h543v-147zM591 183h-543v147h543v-147z" />
    <glyph glyph-name="greater" unicode="&#x3e;" horiz-adv-x="875" 
d="M-7 94v198l413 117l-413 117v197l797 -225q85 -24 85 -88q0 -65 -85 -89z" />
    <glyph glyph-name="question" unicode="?" horiz-adv-x="847" 
d="M847 505q0 -104 -102 -165q-91 -55 -220 -55h-280v-64h-224v157q0 38 33.5 65.5t78.5 27.5h413q25 0 49 7q34 9 34 27t-34 27q-24 6 -49 6h-404l-145 187h528q128 0 220 -55q102 -62 102 -165zM246 95q0 -41 -32.5 -67t-81.5 -26q-50 0 -82 26t-32 67q0 42 32 68t82 26
q49 0 81.5 -26t32.5 -68z" />
    <glyph glyph-name="at" unicode="@" horiz-adv-x="866" 
d="M823 263h-409q-71 0 -113 45q-40 42 -40 102q0 61 41 103.5t112 42.5h210v-202h71v271h-258q-114 0 -187 -58.5t-73 -153.5q0 -94 73 -155t187 -61h287l83 -106h-370q-171 0 -279.5 86t-108.5 227t109.5 234.5t278.5 93.5h386v-469zM514 354v119h-64q-31 0 -50.5 -17
t-19.5 -43t19.5 -42.5t50.5 -16.5h64z" />
    <glyph glyph-name="A" unicode="A" horiz-adv-x="1196" 
d="M347 4l135 187h301l-187 259l-325 -446h-277l462 641q22 32 61 56q43 26 83 26q41 0 83 -26q37 -23 60 -56l451 -641h-847z" />
    <glyph glyph-name="B" unicode="B" horiz-adv-x="1044" 
d="M939 361q64 -58 64 -130q0 -53 -35 -100q-47 -64 -140 -97q-82 -29 -182 -29h-601v449h623q28 0 52 8q33 12 33 35t-33 34q-24 8 -52 8h-623l151 187h450q101 0 183 -30q92 -34 139 -99q35 -48 35 -102q0 -74 -64 -134zM668 267h-399v-76h399q35 0 66 7q46 10 46 31
t-46 31q-31 7 -66 7z" />
    <glyph glyph-name="C" unicode="C" horiz-adv-x="969" 
d="M944 190l-144 -186h-362q-188 0 -311.5 104.5t-123.5 262.5t122 256t313 98h506l-144 -187h-362q-92 0 -152 -49.5t-60 -126.5q0 -76 60 -124t152 -48h506z" />
    <glyph glyph-name="D" unicode="D" horiz-adv-x="985" 
d="M954 371q0 -158 -123.5 -262.5t-311.5 -104.5h-483v450h224v-264h259q93 0 153 47.5t60 124.5t-60.5 126.5t-152.5 49.5h-483l142 187h341q191 0 313 -98t122 -256z" />
    <glyph glyph-name="E" unicode="E" horiz-adv-x="800" 
d="M799 190l-144 -186h-639v721h783l-144 -187h-415v-76h524l-144 -186h-380v-86h559z" />
    <glyph glyph-name="F" unicode="F" horiz-adv-x="790" 
d="M790 725l-144 -187h-415v-76h524l-144 -186h-380v-272h-224v721h783z" />
    <glyph glyph-name="G" unicode="G" horiz-adv-x="968" 
d="M958 725l-144 -187h-362q-92 0 -152.5 -49.5t-60.5 -126.5t60 -124.5t153 -47.5h260v67h-280l-147 178h651v-431h-484q-188 0 -311.5 104.5t-123.5 262.5t122 256t313 98h506z" />
    <glyph glyph-name="H" unicode="H" horiz-adv-x="988" 
d="M934 4h-223v269h-429v-269h-224v721h224v-265h429v265h223v-721z" />
    <glyph glyph-name="I" unicode="I" horiz-adv-x="340" 
d="M286 4h-223v721h223v-721z" />
    <glyph glyph-name="J" unicode="J" horiz-adv-x="872" 
d="M825 332q0 -328 -450 -328h-328v186h328q113 0 162 24q64 31 64 118v393h224v-393z" />
    <glyph glyph-name="K" unicode="K" horiz-adv-x="930" 
d="M923 4h-340l-346 241v-241h-224v721h224v-247l346 247h336l-514 -366z" />
    <glyph glyph-name="L" unicode="L" horiz-adv-x="781" 
d="M781 190l-145 -186h-637v721h223v-535h559z" />
    <glyph glyph-name="M" unicode="M" horiz-adv-x="1368" 
d="M1337 2h-245l-95 381l-202 -325q-40 -63 -110 -63q-36 0 -70 18t-51 45l-203 325l-94 -381h-246l187 640q11 39 46.5 65.5t81.5 26.5q71 0 123 -84l220 -359l221 359q51 84 122 84q47 0 82 -26.5t47 -65.5z" />
    <glyph glyph-name="N" unicode="N" horiz-adv-x="966" 
d="M914 97q0 -98 -89 -98q-64 0 -122 48l-422 353v-396h-224v628q0 40 25.5 66t72.5 26q61 0 113 -43l422 -353v397h224v-628z" />
    <glyph glyph-name="O" unicode="O" horiz-adv-x="1150" 
d="M1119 371q0 -158 -123.5 -262.5t-311.5 -104.5h-217q-189 0 -312.5 104.5t-123.5 262.5t122.5 256t313.5 98h217q191 0 313 -98t122 -256zM684 538h-217q-93 0 -153 -49.5t-60 -126.5t60 -124.5t153 -47.5h217q93 0 153 47.5t60 124.5t-60.5 126.5t-152.5 49.5z" />
    <glyph glyph-name="P" unicode="P" horiz-adv-x="969" 
d="M968 455q0 -122 -105 -198q-101 -72 -250 -72h-377v-181h-223v368h622q46 0 77.5 23t31.5 61t-31.5 60t-77.5 22h-622l148 187h453q148 0 249 -72q105 -76 105 -198z" />
    <glyph glyph-name="Q" unicode="Q" horiz-adv-x="1203" 
d="M1174 4h-326l-24 19q-69 -19 -149 -19h-217q-189 0 -312.5 104.5t-123.5 262.5t122.5 256t313.5 98h217q191 0 313 -98t122 -256q0 -134 -95 -236zM675 538h-217q-93 0 -153 -49.5t-60 -126.5t60 -124.5t153 -47.5h166l-99 83h324l7 -6q31 42 31 95q0 78 -59.5 127
t-152.5 49z" />
    <glyph glyph-name="R" unicode="R" horiz-adv-x="1129" 
d="M1103 4h-325l-218 181h-308v-181h-224v368h622q57 0 94 17q47 22 47 65q0 84 -141 84h-622l146 187h455q169 0 274 -64q118 -73 118 -208q0 -76 -47.5 -137.5t-131.5 -94.5z" />
    <glyph glyph-name="S" unicode="S" horiz-adv-x="1008" 
d="M962 725l-144 -187h-510q-41 0 -41 -29t41 -29h367q131 0 219 -64q91 -68 91 -176q0 -107 -92 -173q-86 -63 -218 -63h-660l144 186h516q35 0 63 12q36 15 36 41q0 27 -36 41q-27 10 -63 10h-367q-122 0 -204 56q-88 60 -88 159q0 100 88 160q82 56 204 56h654z" />
    <glyph glyph-name="T" unicode="T" horiz-adv-x="872" 
d="M872 725l-145 -187h-216v-534h-224v534h-297l144 187h738z" />
    <glyph glyph-name="U" unicode="U" horiz-adv-x="1044" 
d="M997 332q0 -328 -450 -328h-47q-450 0 -450 328v393h223v-393q0 -98 86 -126q46 -16 188 -16q113 0 161 24q65 31 65 118v393h224v-393z" />
    <glyph glyph-name="V" unicode="V" horiz-adv-x="1187" 
d="M1187 725l-486 -651q-60 -81 -122 -81t-122 82l-474 650h278l322 -446l324 446h280z" />
    <glyph glyph-name="W" unicode="W" horiz-adv-x="1317" 
d="M1317 725l-187 -640q-11 -38 -45 -64q-37 -28 -83 -28q-71 0 -123 84l-220 359l-221 -359q-51 -84 -122 -84q-46 0 -81.5 27t-46.5 65l-187 640h245l95 -381l202 325q40 64 110 64q37 0 70.5 -18t51.5 -46l202 -325l94 381h246z" />
    <glyph glyph-name="X" unicode="X" horiz-adv-x="1118" 
d="M1111 725l-357 -367l341 -354h-285l-245 258l-246 -258h-284l340 354l-356 367h289l257 -268l256 268h290z" />
    <glyph glyph-name="Y" unicode="Y" horiz-adv-x="1098" 
d="M1098 725l-428 -482v-239h-224v240l-441 481h286l270 -293l252 293h285z" />
    <glyph glyph-name="Z" unicode="Z" horiz-adv-x="974" 
d="M957 4h-792q-54 0 -89 18q-43 22 -43 64q0 46 54 91l433 361h-503l141 187h614q53 0 91 -23q43 -25 43 -68t-47 -83l-433 -361h397z" />
    <glyph glyph-name="bracketleft" unicode="[" horiz-adv-x="416" 
d="M337 -70h-254q-68 0 -68 54v625q0 55 68 55h254q28 0 48.5 -14t20.5 -41q0 -26 -20.5 -40t-48.5 -14h-186v-516h186q28 0 48.5 -14t20.5 -41q0 -26 -20.5 -40t-48.5 -14z" />
    <glyph glyph-name="backslash" unicode="\" horiz-adv-x="1024" 
d="M1024 3h-268l-772 722h262z" />
    <glyph glyph-name="bracketright" unicode="]" horiz-adv-x="466" 
d="M424 -16q0 -54 -69 -54h-254q-28 0 -47 13q-22 15 -22 41q0 27 22 42q19 13 47 13h186v516h-186q-28 0 -47 13q-22 15 -22 41q0 27 22 42q19 13 47 13h254q69 0 69 -55v-625z" />
    <glyph glyph-name="asciicircum" unicode="^" horiz-adv-x="566" 
d="M536 522q0 -24 -21.5 -40.5t-46.5 -16.5q-17 0 -35 8l-157 69l-158 -70q-18 -8 -35 -8q-25 0 -46 16.5t-21 40.5q0 31 36 47l192 85q13 6 31 6q20 0 35 -7l191 -85q35 -16 35 -45z" />
    <glyph glyph-name="underscore" unicode="_" horiz-adv-x="948" 
d="M948 -198h-936v187h936v-187z" />
    <glyph glyph-name="grave" unicode="`" horiz-adv-x="708" 
d="M414 849h109l81 -110h-82z" />
    <glyph glyph-name="a" unicode="a" horiz-adv-x="1196" 
d="M347 4l135 187h301l-187 259l-325 -446h-277l462 641q22 32 61 56q43 26 83 26q41 0 83 -26q37 -23 60 -56l451 -641h-847z" />
    <glyph glyph-name="b" unicode="b" horiz-adv-x="1044" 
d="M939 361q64 -58 64 -130q0 -53 -35 -100q-47 -64 -140 -97q-82 -29 -182 -29h-601v449h623q28 0 52 8q33 12 33 35t-33 34q-24 8 -52 8h-623l151 187h450q101 0 183 -30q92 -34 139 -99q35 -48 35 -102q0 -74 -64 -134zM668 267h-399v-76h399q35 0 66 7q46 10 46 31
t-46 31q-31 7 -66 7z" />
    <glyph glyph-name="c" unicode="c" horiz-adv-x="944" 
d="M944 190l-144 -186h-362q-188 0 -311.5 104.5t-123.5 262.5t122 256t313 98h506l-144 -187h-362q-92 0 -152 -49.5t-60 -126.5q0 -76 60 -124t152 -48h506z" />
    <glyph glyph-name="d" unicode="d" horiz-adv-x="985" 
d="M954 371q0 -158 -123.5 -262.5t-311.5 -104.5h-483v450h224v-264h259q93 0 153 47.5t60 124.5t-60.5 126.5t-152.5 49.5h-483l142 187h341q191 0 313 -98t122 -256z" />
    <glyph glyph-name="e" unicode="e" horiz-adv-x="800" 
d="M799 190l-144 -186h-639v721h783l-144 -187h-415v-76h524l-144 -186h-380v-86h559z" />
    <glyph glyph-name="f" unicode="f" horiz-adv-x="790" 
d="M790 725l-144 -187h-415v-76h524l-144 -186h-380v-272h-224v721h783z" />
    <glyph glyph-name="g" unicode="g" horiz-adv-x="968" 
d="M958 725l-144 -187h-362q-92 0 -152.5 -49.5t-60.5 -126.5t60 -124.5t153 -47.5h260v67h-280l-147 178h651v-431h-484q-188 0 -311.5 104.5t-123.5 262.5t122 256t313 98h506z" />
    <glyph glyph-name="h" unicode="h" horiz-adv-x="988" 
d="M934 4h-223v269h-429v-269h-224v721h224v-265h429v265h223v-721z" />
    <glyph glyph-name="i" unicode="i" horiz-adv-x="340" 
d="M286 4h-223v721h223v-721z" />
    <glyph glyph-name="j" unicode="j" horiz-adv-x="872" 
d="M825 332q0 -328 -450 -328h-328v186h328q113 0 162 24q64 31 64 118v393h224v-393z" />
    <glyph glyph-name="k" unicode="k" horiz-adv-x="930" 
d="M923 4h-340l-346 241v-241h-224v721h224v-247l346 247h336l-514 -366z" />
    <glyph glyph-name="l" unicode="l" horiz-adv-x="781" 
d="M781 190l-145 -186h-637v721h223v-535h559z" />
    <glyph glyph-name="m" unicode="m" horiz-adv-x="1368" 
d="M1337 2h-245l-95 381l-202 -325q-40 -63 -110 -63q-36 0 -70 18t-51 45l-203 325l-94 -381h-246l187 640q11 39 46.5 65.5t81.5 26.5q71 0 123 -84l220 -359l221 359q51 84 122 84q47 0 82 -26.5t47 -65.5z" />
    <glyph glyph-name="n" unicode="n" horiz-adv-x="966" 
d="M914 97q0 -98 -89 -98q-64 0 -122 48l-422 353v-396h-224v628q0 40 25.5 66t72.5 26q61 0 113 -43l422 -353v397h224v-628z" />
    <glyph glyph-name="o" unicode="o" horiz-adv-x="1150" 
d="M1119 371q0 -158 -123.5 -262.5t-311.5 -104.5h-217q-189 0 -312.5 104.5t-123.5 262.5t122.5 256t313.5 98h217q191 0 313 -98t122 -256zM684 538h-217q-93 0 -153 -49.5t-60 -126.5t60 -124.5t153 -47.5h217q93 0 153 47.5t60 124.5t-60.5 126.5t-152.5 49.5z" />
    <glyph glyph-name="p" unicode="p" horiz-adv-x="969" 
d="M968 455q0 -122 -105 -198q-101 -72 -250 -72h-377v-181h-223v368h622q46 0 77.5 23t31.5 61t-31.5 60t-77.5 22h-622l148 187h453q148 0 249 -72q105 -76 105 -198z" />
    <glyph glyph-name="q" unicode="q" horiz-adv-x="1203" 
d="M1174 4h-326l-24 19q-69 -19 -149 -19h-217q-189 0 -312.5 104.5t-123.5 262.5t122.5 256t313.5 98h217q191 0 313 -98t122 -256q0 -134 -95 -236zM675 538h-217q-93 0 -153 -49.5t-60 -126.5t60 -124.5t153 -47.5h166l-99 83h324l7 -6q31 42 31 95q0 78 -59.5 127
t-152.5 49z" />
    <glyph glyph-name="r" unicode="r" horiz-adv-x="1129" 
d="M1103 4h-325l-218 181h-308v-181h-224v368h622q57 0 94 17q47 22 47 65q0 84 -141 84h-622l146 187h455q169 0 274 -64q118 -73 118 -208q0 -76 -47.5 -137.5t-131.5 -94.5z" />
    <glyph glyph-name="s" unicode="s" horiz-adv-x="1008" 
d="M962 725l-144 -187h-510q-41 0 -41 -29t41 -29h367q131 0 219 -64q91 -68 91 -176q0 -107 -92 -173q-86 -63 -218 -63h-660l144 186h516q35 0 63 12q36 15 36 41q0 27 -36 41q-27 10 -63 10h-367q-122 0 -204 56q-88 60 -88 159q0 100 88 160q82 56 204 56h654z" />
    <glyph glyph-name="t" unicode="t" horiz-adv-x="872" 
d="M872 725l-145 -187h-216v-534h-224v534h-297l144 187h738z" />
    <glyph glyph-name="u" unicode="u" horiz-adv-x="1044" 
d="M997 332q0 -328 -450 -328h-47q-450 0 -450 328v393h223v-393q0 -98 86 -126q46 -16 188 -16q113 0 161 24q65 31 65 118v393h224v-393z" />
    <glyph glyph-name="v" unicode="v" horiz-adv-x="1187" 
d="M1187 725l-486 -651q-60 -81 -122 -81t-122 82l-474 650h278l322 -446l324 446h280z" />
    <glyph glyph-name="w" unicode="w" horiz-adv-x="1317" 
d="M1317 725l-187 -640q-11 -38 -45 -64q-37 -28 -83 -28q-71 0 -123 84l-220 359l-221 -359q-51 -84 -122 -84q-46 0 -81.5 27t-46.5 65l-187 640h245l95 -381l202 325q40 64 110 64q37 0 70.5 -18t51.5 -46l202 -325l94 381h246z" />
    <glyph glyph-name="x" unicode="x" horiz-adv-x="1118" 
d="M1111 725l-357 -367l341 -354h-285l-245 258l-246 -258h-284l340 354l-356 367h289l257 -268l256 268h290z" />
    <glyph glyph-name="y" unicode="y" horiz-adv-x="1098" 
d="M1098 725l-428 -482v-239h-224v240l-441 481h286l270 -293l252 293h285z" />
    <glyph glyph-name="z" unicode="z" horiz-adv-x="974" 
d="M957 4h-792q-54 0 -89 18q-43 22 -43 64q0 46 54 91l433 361h-503l141 187h614q53 0 91 -23q43 -25 43 -68t-47 -83l-433 -361h397z" />
    <glyph glyph-name="braceleft" unicode="{" horiz-adv-x="435" 
d="M435 815l-77 -107q-109 0 -154 -15q-75 -25 -75 -101v-580q0 -86 105 -110q48 -12 189 -12l-77 -106q-150 0 -240 50q-105 60 -105 178v580q0 127 96 180q79 43 242 43h96z" />
    <glyph glyph-name="bar" unicode="|" horiz-adv-x="174" 
d="M110 -212h-41v990h41v-990z" />
    <glyph glyph-name="braceright" unicode="}" horiz-adv-x="557" 
d="M507 12q0 -118 -105 -178q-90 -50 -240 -50l-77 106q141 0 189 12q105 24 105 110v580q0 76 -74 101q-46 15 -155 15l-77 107h97q162 0 241 -43q96 -53 96 -180v-580z" />
    <glyph glyph-name="asciitilde" unicode="~" horiz-adv-x="132" 
d="M122 671l-24 -24h-33l-12 14l-10 -14h-27l23 24h29l14 -14l13 14h27z" />
    <glyph glyph-name="glyph103" 
 />
    <glyph glyph-name="glyph104" 
 />
    <glyph glyph-name="glyph105" 
 />
    <glyph glyph-name="glyph106" 
 />
    <glyph glyph-name="glyph107" 
 />
    <glyph glyph-name="glyph108" 
 />
    <glyph glyph-name="glyph109" 
 />
    <glyph glyph-name="glyph110" 
 />
    <glyph glyph-name="glyph111" 
 />
    <glyph glyph-name="glyph112" 
 />
    <glyph glyph-name="glyph113" 
 />
    <glyph glyph-name="glyph114" 
 />
    <glyph glyph-name="glyph115" 
 />
    <glyph glyph-name="glyph116" 
 />
    <glyph glyph-name="glyph117" 
 />
    <glyph glyph-name="glyph118" 
 />
    <glyph glyph-name="glyph119" 
 />
    <glyph glyph-name="glyph120" 
 />
    <glyph glyph-name="glyph121" 
 />
    <glyph glyph-name="glyph122" 
 />
    <glyph glyph-name="glyph123" 
 />
    <glyph glyph-name="glyph124" 
 />
    <glyph glyph-name="glyph125" 
 />
    <glyph glyph-name="glyph126" 
 />
    <glyph glyph-name="glyph127" 
 />
    <glyph glyph-name="glyph128" 
 />
    <glyph glyph-name="glyph129" 
 />
    <glyph glyph-name="glyph130" 
 />
    <glyph glyph-name="glyph131" 
 />
    <glyph glyph-name="glyph132" 
 />
    <glyph glyph-name="glyph133" 
 />
    <glyph glyph-name="glyph134" 
 />
    <glyph glyph-name="glyph135" 
 />
    <glyph glyph-name="glyph136" 
 />
    <glyph glyph-name="exclamdown" unicode="&#xa1;" horiz-adv-x="321" 
d="M277 -323v194v97l-25 213h-174l-25 -213v-97v-194h224zM280 307q0 41 -32 67t-81 26q-50 0 -82 -26t-32 -67q0 -42 32 -68t82 -26q49 0 81 26t32 68z" />
    <glyph glyph-name="cent" unicode="&#xa2;" horiz-adv-x="1000" 
 />
    <glyph glyph-name="sterling" unicode="&#xa3;" 
 />
    <glyph glyph-name="currency" unicode="&#xa4;" 
 />
    <glyph glyph-name="yen" unicode="&#xa5;" horiz-adv-x="1000" 
 />
    <glyph glyph-name="brokenbar" unicode="&#xa6;" horiz-adv-x="1000" 
 />
    <glyph glyph-name="section" unicode="&#xa7;" 
 />
    <glyph glyph-name="dieresis" unicode="&#xa8;" horiz-adv-x="752" 
d="M605 842q20 0 36 -12.5t16 -31.5q0 -20 -16 -32t-36 -12q-21 0 -37 12t-16 32q0 19 16 31.5t37 12.5zM435 842q20 0 36 -12.5t16 -31.5q0 -20 -16 -32t-36 -12q-21 0 -37 12t-16 32t16 32t37 12z" />
    <glyph glyph-name="copyright" unicode="&#xa9;" horiz-adv-x="1000" 
 />
    <glyph glyph-name="ordfeminine" unicode="&#xaa;" 
 />
    <glyph glyph-name="guillemotleft" unicode="&#xab;" 
 />
    <glyph glyph-name="logicalnot" unicode="&#xac;" 
 />
    <glyph glyph-name="glyph149" 
 />
    <glyph glyph-name="registered" unicode="&#xae;" horiz-adv-x="1000" 
 />
    <glyph glyph-name="overscore" unicode="&#xaf;" 
 />
    <glyph glyph-name="degree" unicode="&#xb0;" horiz-adv-x="1000" 
 />
    <glyph glyph-name="plusminus" unicode="&#xb1;" 
 />
    <glyph glyph-name="twosuperior" unicode="&#xb2;" 
 />
    <glyph glyph-name="threesuperior" unicode="&#xb3;" 
 />
    <glyph glyph-name="acute" unicode="&#xb4;" horiz-adv-x="668" 
d="M631 849h-109l-82 -110h82z" />
    <glyph glyph-name="mu1" unicode="&#xb5;" 
 />
    <glyph glyph-name="paragraph" unicode="&#xb6;" horiz-adv-x="1000" 
 />
    <glyph glyph-name="middot" unicode="&#xb7;" 
 />
    <glyph glyph-name="middot" unicode="&#x2219;" 
 />
    <glyph glyph-name="cedilla" unicode="&#xb8;" horiz-adv-x="721" 
d="M492 24h57l-47 -46q118 -17 118 -85q0 -47 -64 -77q-60 -28 -139 -28q-38 0 -89 4v25q33 -2 45 -2q45 0 80 18.5t35 45.5q0 20 -24 31.5t-57 11.5q-8 0 -20 -1z" />
    <glyph glyph-name="onesuperior" unicode="&#xb9;" 
 />
    <glyph glyph-name="ordmasculine" unicode="&#xba;" horiz-adv-x="1000" 
 />
    <glyph glyph-name="guillemotright" unicode="&#xbb;" 
 />
    <glyph glyph-name="onequarter" unicode="&#xbc;" 
 />
    <glyph glyph-name="onehalf" unicode="&#xbd;" 
 />
    <glyph glyph-name="threequarters" unicode="&#xbe;" 
 />
    <glyph glyph-name="questiondown" unicode="&#xbf;" horiz-adv-x="878" 
d="M20 -89q0 104 101 165q91 55 221 55h279v64h224v-157q0 -38 -33 -65.5t-79 -27.5h-413q-25 0 -49 -7q-33 -9 -33 -27t33 -27q24 -6 49 -6h404l145 -187h-528q-128 0 -219 55q-102 62 -102 165zM621 321q0 41 32 67t82 26q49 0 81 -26t32 -67q0 -42 -32 -68t-82 -26
q-49 0 -81 26t-32 68z" />
    <glyph glyph-name="Agrave" unicode="&#xc0;" horiz-adv-x="1196" 
d="M347 4l135 187h301l-187 259l-325 -446h-277l462 641q22 32 61 56q43 26 83 26q41 0 83 -26q37 -23 60 -56l451 -641h-847zM444 849h109l81 -110h-82z" />
    <glyph glyph-name="Aacute" unicode="&#xc1;" horiz-adv-x="1196" 
d="M347 4l135 187h301l-187 259l-325 -446h-277l462 641q22 32 61 56q43 26 83 26q41 0 83 -26q37 -23 60 -56l451 -641h-847zM731 849h-109l-82 -110h82z" />
    <glyph glyph-name="Acircumflex" unicode="&#xc2;" horiz-adv-x="1196" 
d="M347 4l135 187h301l-187 259l-325 -446h-277l462 641q22 32 61 56q43 26 83 26q41 0 83 -26q37 -23 60 -56l451 -641h-847zM531 846h130l73 -102h-84l-55 65l-52 -65h-84z" />
    <glyph glyph-name="Atilde" unicode="&#xc3;" horiz-adv-x="1196" 
d="M347 4l135 187h301l-187 259l-325 -446h-277l462 641q22 32 61 56q43 26 83 26q41 0 83 -26q37 -23 60 -56l451 -641h-847zM444 750h-15q3 99 90 99q34 0 84.5 -26.5t70.5 -26.5q33 0 45 53h15q0 -64 -47 -89q-21 -11 -44 -11q-34 0 -85.5 27t-68.5 27q-23 0 -34 -19
q-4 -6 -11 -34z" />
    <glyph glyph-name="Adieresis" unicode="&#xc4;" horiz-adv-x="1196" 
d="M347 4l135 187h301l-187 259l-325 -446h-277l462 641q22 32 61 56q43 26 83 26q41 0 83 -26q37 -23 60 -56l451 -641h-847zM675 842q20 0 36 -12.5t16 -31.5q0 -20 -16 -32t-36 -12q-21 0 -37 12t-16 32q0 19 16 31.5t37 12.5zM505 842q20 0 36 -12.5t16 -31.5
q0 -20 -16 -32t-36 -12q-21 0 -37 12t-16 32t16 32t37 12z" />
    <glyph glyph-name="Aring" unicode="&#xc5;" horiz-adv-x="1196" 
d="M347 4l135 187h301l-187 259l-325 -446h-277l462 641q22 32 61 56q43 26 83 26q41 0 83 -26q37 -23 60 -56l451 -641h-847zM590 880q37 0 65 -24.5t28 -61.5q0 -38 -27.5 -62.5t-65.5 -24.5t-66 24.5t-28 62.5q0 37 28 61.5t66 24.5zM590 849q-25 0 -42.5 -15.5
t-17.5 -39.5t17.5 -39.5t42.5 -15.5q23 0 41 15.5t18 39.5q0 23 -18 39t-41 16z" />
    <glyph glyph-name="AE" unicode="&#xc6;" horiz-adv-x="1709" 
d="M333 4l135 187h301l-187 259l-325 -446h-277l462 641q22 32 61 56q43 26 83 26q41 0 83 -26q37 -23 60 -56l451 -641h-847zM1685 190l-144 -186h-639v721h783l-144 -187h-415v-76h524l-144 -186h-380v-86h559z" />
    <glyph glyph-name="Ccedilla" unicode="&#xc7;" horiz-adv-x="974" 
d="M941 190l-144 -186h-362q-188 0 -311.5 104.5t-123.5 262.5t122 256t313 98h506l-144 -187h-362q-92 0 -152 -49.5t-60 -126.5q0 -76 60 -124t152 -48h506zM492 24h57l-47 -46q118 -17 118 -85q0 -47 -64 -77q-60 -28 -139 -28q-38 0 -89 4v25q33 -2 45 -2q45 0 80 18.5
t35 45.5q0 20 -24 31.5t-57 11.5q-8 0 -20 -1z" />
    <glyph glyph-name="Egrave" unicode="&#xc8;" horiz-adv-x="800" 
d="M799 190l-144 -186h-639v721h783l-144 -187h-415v-76h524l-144 -186h-380v-86h559zM294 849h109l81 -110h-82z" />
    <glyph glyph-name="Eacute" unicode="&#xc9;" horiz-adv-x="800" 
d="M799 190l-144 -186h-639v721h783l-144 -187h-415v-76h524l-144 -186h-380v-86h559zM531 849h-109l-82 -110h82z" />
    <glyph glyph-name="Ecircumflex" unicode="&#xca;" horiz-adv-x="800" 
d="M799 190l-144 -186h-639v721h783l-144 -187h-415v-76h524l-144 -186h-380v-86h559zM341 846h130l73 -102h-84l-55 65l-52 -65h-84z" />
    <glyph glyph-name="Edieresis" unicode="&#xcb;" horiz-adv-x="800" 
d="M799 190l-144 -186h-639v721h783l-144 -187h-415v-76h524l-144 -186h-380v-86h559zM505 842q20 0 36 -12.5t16 -31.5q0 -20 -16 -32t-36 -12q-21 0 -37 12t-16 32q0 19 16 31.5t37 12.5zM335 842q20 0 36 -12.5t16 -31.5q0 -20 -16 -32t-36 -12q-21 0 -37 12t-16 32
t16 32t37 12z" />
    <glyph glyph-name="Igrave" unicode="&#xcc;" horiz-adv-x="340" 
d="M286 4h-223v721h223v-721zM54 849h109l81 -110h-82z" />
    <glyph glyph-name="Iacute" unicode="&#xcd;" horiz-adv-x="340" 
d="M286 4h-223v721h223v-721zM321 849h-109l-82 -110h82z" />
    <glyph glyph-name="Icircumflex" unicode="&#xce;" horiz-adv-x="340" 
d="M286 4h-223v721h223v-721zM101 846h130l73 -102h-84l-55 65l-52 -65h-84z" />
    <glyph glyph-name="Idieresis" unicode="&#xcf;" horiz-adv-x="340" 
d="M286 4h-223v721h223v-721zM255 842q20 0 36 -12.5t16 -31.5q0 -20 -16 -32t-36 -12q-21 0 -37 12t-16 32q0 19 16 31.5t37 12.5zM85 842q20 0 36 -12.5t16 -31.5q0 -20 -16 -32t-36 -12q-21 0 -37 12t-16 32t16 32t37 12z" />
    <glyph glyph-name="Eth" unicode="&#xd0;" horiz-adv-x="1023" 
d="M989 371q0 -158 -123.5 -262.5t-312.5 -104.5h-482v450h224v-264h258q93 0 153 47.5t60 124.5t-60 126.5t-153 49.5h-482l142 187h340q191 0 313.5 -98t122.5 -256zM-15 368h420v-112h-420v112z" />
    <glyph glyph-name="Ntilde" unicode="&#xd1;" horiz-adv-x="966" 
d="M914 97q0 -98 -89 -98q-64 0 -122 48l-422 353v-396h-224v628q0 40 25.5 66t72.5 26q61 0 113 -43l422 -353v397h224v-628zM354 750h-15q3 99 90 99q34 0 84.5 -26.5t70.5 -26.5q33 0 45 53h15q0 -64 -47 -89q-21 -11 -44 -11q-34 0 -85.5 27t-68.5 27q-23 0 -34 -19
q-4 -6 -11 -34z" />
    <glyph glyph-name="Ograve" unicode="&#xd2;" horiz-adv-x="1150" 
d="M1119 371q0 -158 -123.5 -262.5t-311.5 -104.5h-217q-189 0 -312.5 104.5t-123.5 262.5t122.5 256t313.5 98h217q191 0 313 -98t122 -256zM684 538h-217q-93 0 -153 -49.5t-60 -126.5t60 -124.5t153 -47.5h217q93 0 153 47.5t60 124.5t-60.5 126.5t-152.5 49.5zM424 849
h109l81 -110h-82z" />
    <glyph glyph-name="Oacute" unicode="&#xd3;" horiz-adv-x="1150" 
d="M1119 371q0 -158 -123.5 -262.5t-311.5 -104.5h-217q-189 0 -312.5 104.5t-123.5 262.5t122.5 256t313.5 98h217q191 0 313 -98t122 -256zM684 538h-217q-93 0 -153 -49.5t-60 -126.5t60 -124.5t153 -47.5h217q93 0 153 47.5t60 124.5t-60.5 126.5t-152.5 49.5zM681 849
h-109l-82 -110h82z" />
    <glyph glyph-name="Ocircumflex" unicode="&#xd4;" horiz-adv-x="1150" 
d="M1119 371q0 -158 -123.5 -262.5t-311.5 -104.5h-217q-189 0 -312.5 104.5t-123.5 262.5t122.5 256t313.5 98h217q191 0 313 -98t122 -256zM684 538h-217q-93 0 -153 -49.5t-60 -126.5t60 -124.5t153 -47.5h217q93 0 153 47.5t60 124.5t-60.5 126.5t-152.5 49.5zM511 846
h130l73 -102h-84l-55 65l-52 -65h-84z" />
    <glyph glyph-name="Otilde" unicode="&#xd5;" horiz-adv-x="1150" 
d="M1119 371q0 -158 -123.5 -262.5t-311.5 -104.5h-217q-189 0 -312.5 104.5t-123.5 262.5t122.5 256t313.5 98h217q191 0 313 -98t122 -256zM684 538h-217q-93 0 -153 -49.5t-60 -126.5t60 -124.5t153 -47.5h217q93 0 153 47.5t60 124.5t-60.5 126.5t-152.5 49.5zM434 750
h-15q3 99 90 99q34 0 84.5 -26.5t70.5 -26.5q33 0 45 53h15q0 -64 -47 -89q-21 -11 -44 -11q-34 0 -85.5 27t-68.5 27q-23 0 -34 -19q-4 -6 -11 -34z" />
    <glyph glyph-name="Odieresis" unicode="&#xd6;" horiz-adv-x="1150" 
d="M1119 371q0 -158 -123.5 -262.5t-311.5 -104.5h-217q-189 0 -312.5 104.5t-123.5 262.5t122.5 256t313.5 98h217q191 0 313 -98t122 -256zM684 538h-217q-93 0 -153 -49.5t-60 -126.5t60 -124.5t153 -47.5h217q93 0 153 47.5t60 124.5t-60.5 126.5t-152.5 49.5zM665 842
q20 0 36 -12.5t16 -31.5q0 -20 -16 -32t-36 -12q-21 0 -37 12t-16 32q0 19 16 31.5t37 12.5zM495 842q20 0 36 -12.5t16 -31.5q0 -20 -16 -32t-36 -12q-21 0 -37 12t-16 32t16 32t37 12z" />
    <glyph glyph-name="multiply" unicode="&#xd7;" horiz-adv-x="1000" 
 />
    <glyph glyph-name="Oslash" unicode="&#xd8;" horiz-adv-x="1150" 
d="M1132 371q0 -158 -123.5 -262.5t-311.5 -104.5h-217q-189 0 -312.5 104.5t-123.5 262.5t122.5 256t313.5 98h217q191 0 313 -98t122 -256zM697 538h-217q-93 0 -153 -49.5t-60 -126.5t60 -124.5t153 -47.5h217q93 0 153 47.5t60 124.5t-60.5 126.5t-152.5 49.5zM1111 725
l-771 -722h-269l779 722h261z" />
    <glyph glyph-name="Ugrave" unicode="&#xd9;" horiz-adv-x="1044" 
d="M997 332q0 -328 -450 -328h-47q-450 0 -450 328v393h223v-393q0 -98 86 -126q46 -16 188 -16q113 0 161 24q65 31 65 118v393h224v-393zM414 849h109l81 -110h-82z" />
    <glyph glyph-name="Uacute" unicode="&#xda;" horiz-adv-x="1044" 
d="M997 332q0 -328 -450 -328h-47q-450 0 -450 328v393h223v-393q0 -98 86 -126q46 -16 188 -16q113 0 161 24q65 31 65 118v393h224v-393zM631 849h-109l-82 -110h82z" />
    <glyph glyph-name="Ucircumflex" unicode="&#xdb;" horiz-adv-x="1044" 
d="M997 332q0 -328 -450 -328h-47q-450 0 -450 328v393h223v-393q0 -98 86 -126q46 -16 188 -16q113 0 161 24q65 31 65 118v393h224v-393zM441 846h130l73 -102h-84l-55 65l-52 -65h-84z" />
    <glyph glyph-name="Udieresis" unicode="&#xdc;" horiz-adv-x="1044" 
d="M997 332q0 -328 -450 -328h-47q-450 0 -450 328v393h223v-393q0 -98 86 -126q46 -16 188 -16q113 0 161 24q65 31 65 118v393h224v-393zM605 842q20 0 36 -12.5t16 -31.5q0 -20 -16 -32t-36 -12q-21 0 -37 12t-16 32q0 19 16 31.5t37 12.5zM435 842q20 0 36 -12.5
t16 -31.5q0 -20 -16 -32t-36 -12q-21 0 -37 12t-16 32t16 32t37 12z" />
    <glyph glyph-name="Yacute" unicode="&#xdd;" horiz-adv-x="1111" 
d="M1098 725l-428 -482v-239h-224v240l-441 481h286l270 -293l252 293h285zM691 849h-109l-82 -110h82z" />
    <glyph glyph-name="Thorn" unicode="&#xde;" 
 />
    <glyph glyph-name="germandbls" unicode="&#xdf;" horiz-adv-x="1061" 
d="M254 5h-214v534q0 91 65 142q58 45 149 45h410q102 0 184 -31q94 -35 140 -101q33 -47 33 -99q0 -74 -64 -134q64 -58 64 -130q0 -51 -33 -97q-46 -65 -140 -99q-83 -30 -184 -30h-327v186h349q35 0 66 7q46 10 46 31t-46 31q-31 7 -66 7h-349v187h349q28 0 51 8
q33 12 33 35t-33 34q-23 8 -51 8h-369q-63 0 -63 -57v-477z" />
    <glyph glyph-name="agrave" unicode="&#xe0;" horiz-adv-x="1196" 
d="M347 4l135 187h301l-187 259l-325 -446h-277l462 641q22 32 61 56q43 26 83 26q41 0 83 -26q37 -23 60 -56l451 -641h-847zM444 849h109l81 -110h-82z" />
    <glyph glyph-name="aacute" unicode="&#xe1;" horiz-adv-x="1196" 
d="M347 4l135 187h301l-187 259l-325 -446h-277l462 641q22 32 61 56q43 26 83 26q41 0 83 -26q37 -23 60 -56l451 -641h-847zM731 849h-109l-82 -110h82z" />
    <glyph glyph-name="acircumflex" unicode="&#xe2;" horiz-adv-x="1196" 
d="M347 4l135 187h301l-187 259l-325 -446h-277l462 641q22 32 61 56q43 26 83 26q41 0 83 -26q37 -23 60 -56l451 -641h-847zM531 846h130l73 -102h-84l-55 65l-52 -65h-84z" />
    <glyph glyph-name="atilde" unicode="&#xe3;" horiz-adv-x="1196" 
d="M347 4l135 187h301l-187 259l-325 -446h-277l462 641q22 32 61 56q43 26 83 26q41 0 83 -26q37 -23 60 -56l451 -641h-847zM444 750h-15q3 99 90 99q34 0 84.5 -26.5t70.5 -26.5q33 0 45 53h15q0 -64 -47 -89q-21 -11 -44 -11q-34 0 -85.5 27t-68.5 27q-23 0 -34 -19
q-4 -6 -11 -34z" />
    <glyph glyph-name="adieresis" unicode="&#xe4;" horiz-adv-x="1196" 
d="M347 4l135 187h301l-187 259l-325 -446h-277l462 641q22 32 61 56q43 26 83 26q41 0 83 -26q37 -23 60 -56l451 -641h-847zM675 842q20 0 36 -12.5t16 -31.5q0 -20 -16 -32t-36 -12q-21 0 -37 12t-16 32q0 19 16 31.5t37 12.5zM505 842q20 0 36 -12.5t16 -31.5
q0 -20 -16 -32t-36 -12q-21 0 -37 12t-16 32t16 32t37 12z" />
    <glyph glyph-name="aring" unicode="&#xe5;" horiz-adv-x="1196" 
d="M347 4l135 187h301l-187 259l-325 -446h-277l462 641q22 32 61 56q43 26 83 26q41 0 83 -26q37 -23 60 -56l451 -641h-847zM590 880q37 0 65 -24.5t28 -61.5q0 -38 -27.5 -62.5t-65.5 -24.5t-66 24.5t-28 62.5q0 37 28 61.5t66 24.5zM590 849q-25 0 -42.5 -15.5
t-17.5 -39.5t17.5 -39.5t42.5 -15.5q23 0 41 15.5t18 39.5q0 23 -18 39t-41 16z" />
    <glyph glyph-name="ae" unicode="&#xe6;" horiz-adv-x="1700" 
d="M333 4l135 187h301l-187 259l-325 -446h-277l462 641q22 32 61 56q43 26 83 26q41 0 83 -26q37 -23 60 -56l451 -641h-847zM1685 190l-144 -186h-639v721h783l-144 -187h-415v-76h524l-144 -186h-380v-86h559z" />
    <glyph glyph-name="ccedilla" unicode="&#xe7;" horiz-adv-x="570" 
d="M941 190l-144 -186h-362q-188 0 -311.5 104.5t-123.5 262.5t122 256t313 98h506l-144 -187h-362q-92 0 -152 -49.5t-60 -126.5q0 -76 60 -124t152 -48h506zM492 24h57l-47 -46q118 -17 118 -85q0 -47 -64 -77q-60 -28 -139 -28q-38 0 -89 4v25q33 -2 45 -2q45 0 80 18.5
t35 45.5q0 20 -24 31.5t-57 11.5q-8 0 -20 -1z" />
    <glyph glyph-name="egrave" unicode="&#xe8;" horiz-adv-x="800" 
d="M799 190l-144 -186h-639v721h783l-144 -187h-415v-76h524l-144 -186h-380v-86h559zM294 849h109l81 -110h-82z" />
    <glyph glyph-name="eacute" unicode="&#xe9;" horiz-adv-x="800" 
d="M799 190l-144 -186h-639v721h783l-144 -187h-415v-76h524l-144 -186h-380v-86h559zM531 849h-109l-82 -110h82z" />
    <glyph glyph-name="ecircumflex" unicode="&#xea;" horiz-adv-x="800" 
d="M799 190l-144 -186h-639v721h783l-144 -187h-415v-76h524l-144 -186h-380v-86h559zM341 846h130l73 -102h-84l-55 65l-52 -65h-84z" />
    <glyph glyph-name="edieresis" unicode="&#xeb;" horiz-adv-x="800" 
d="M799 190l-144 -186h-639v721h783l-144 -187h-415v-76h524l-144 -186h-380v-86h559zM505 842q20 0 36 -12.5t16 -31.5q0 -20 -16 -32t-36 -12q-21 0 -37 12t-16 32q0 19 16 31.5t37 12.5zM335 842q20 0 36 -12.5t16 -31.5q0 -20 -16 -32t-36 -12q-21 0 -37 12t-16 32
t16 32t37 12z" />
    <glyph glyph-name="igrave" unicode="&#xec;" horiz-adv-x="340" 
d="M286 4h-223v721h223v-721zM54 849h109l81 -110h-82z" />
    <glyph glyph-name="iacute" unicode="&#xed;" horiz-adv-x="340" 
d="M286 4h-223v721h223v-721zM321 849h-109l-82 -110h82z" />
    <glyph glyph-name="icircumflex" unicode="&#xee;" horiz-adv-x="340" 
d="M286 4h-223v721h223v-721zM101 846h130l73 -102h-84l-55 65l-52 -65h-84z" />
    <glyph glyph-name="idieresis" unicode="&#xef;" horiz-adv-x="340" 
d="M286 4h-223v721h223v-721zM255 842q20 0 36 -12.5t16 -31.5q0 -20 -16 -32t-36 -12q-21 0 -37 12t-16 32q0 19 16 31.5t37 12.5zM85 842q20 0 36 -12.5t16 -31.5q0 -20 -16 -32t-36 -12q-21 0 -37 12t-16 32t16 32t37 12z" />
    <glyph glyph-name="eth" unicode="&#xf0;" horiz-adv-x="1000" 
 />
    <glyph glyph-name="ntilde" unicode="&#xf1;" horiz-adv-x="966" 
d="M914 97q0 -98 -89 -98q-64 0 -122 48l-422 353v-396h-224v628q0 40 25.5 66t72.5 26q61 0 113 -43l422 -353v397h224v-628zM354 750h-15q3 99 90 99q34 0 84.5 -26.5t70.5 -26.5q33 0 45 53h15q0 -64 -47 -89q-21 -11 -44 -11q-34 0 -85.5 27t-68.5 27q-23 0 -34 -19
q-4 -6 -11 -34z" />
    <glyph glyph-name="ograve" unicode="&#xf2;" horiz-adv-x="1150" 
d="M1119 371q0 -158 -123.5 -262.5t-311.5 -104.5h-217q-189 0 -312.5 104.5t-123.5 262.5t122.5 256t313.5 98h217q191 0 313 -98t122 -256zM684 538h-217q-93 0 -153 -49.5t-60 -126.5t60 -124.5t153 -47.5h217q93 0 153 47.5t60 124.5t-60.5 126.5t-152.5 49.5zM424 849
h109l81 -110h-82z" />
    <glyph glyph-name="oacute" unicode="&#xf3;" horiz-adv-x="1150" 
d="M1119 371q0 -158 -123.5 -262.5t-311.5 -104.5h-217q-189 0 -312.5 104.5t-123.5 262.5t122.5 256t313.5 98h217q191 0 313 -98t122 -256zM684 538h-217q-93 0 -153 -49.5t-60 -126.5t60 -124.5t153 -47.5h217q93 0 153 47.5t60 124.5t-60.5 126.5t-152.5 49.5zM681 849
h-109l-82 -110h82z" />
    <glyph glyph-name="ocircumflex" unicode="&#xf4;" horiz-adv-x="1150" 
d="M1119 371q0 -158 -123.5 -262.5t-311.5 -104.5h-217q-189 0 -312.5 104.5t-123.5 262.5t122.5 256t313.5 98h217q191 0 313 -98t122 -256zM684 538h-217q-93 0 -153 -49.5t-60 -126.5t60 -124.5t153 -47.5h217q93 0 153 47.5t60 124.5t-60.5 126.5t-152.5 49.5zM511 846
h130l73 -102h-84l-55 65l-52 -65h-84z" />
    <glyph glyph-name="otilde" unicode="&#xf5;" horiz-adv-x="1150" 
d="M1119 371q0 -158 -123.5 -262.5t-311.5 -104.5h-217q-189 0 -312.5 104.5t-123.5 262.5t122.5 256t313.5 98h217q191 0 313 -98t122 -256zM684 538h-217q-93 0 -153 -49.5t-60 -126.5t60 -124.5t153 -47.5h217q93 0 153 47.5t60 124.5t-60.5 126.5t-152.5 49.5zM434 750
h-15q3 99 90 99q34 0 84.5 -26.5t70.5 -26.5q33 0 45 53h15q0 -64 -47 -89q-21 -11 -44 -11q-34 0 -85.5 27t-68.5 27q-23 0 -34 -19q-4 -6 -11 -34z" />
    <glyph glyph-name="odieresis" unicode="&#xf6;" horiz-adv-x="1150" 
d="M1119 371q0 -158 -123.5 -262.5t-311.5 -104.5h-217q-189 0 -312.5 104.5t-123.5 262.5t122.5 256t313.5 98h217q191 0 313 -98t122 -256zM684 538h-217q-93 0 -153 -49.5t-60 -126.5t60 -124.5t153 -47.5h217q93 0 153 47.5t60 124.5t-60.5 126.5t-152.5 49.5zM665 842
q20 0 36 -12.5t16 -31.5q0 -20 -16 -32t-36 -12q-21 0 -37 12t-16 32q0 19 16 31.5t37 12.5zM495 842q20 0 36 -12.5t16 -31.5q0 -20 -16 -32t-36 -12q-21 0 -37 12t-16 32t16 32t37 12z" />
    <glyph glyph-name="divide" unicode="&#xf7;" horiz-adv-x="1000" 
 />
    <glyph glyph-name="oslash" unicode="&#xf8;" horiz-adv-x="1150" 
d="M1132 371q0 -158 -123.5 -262.5t-311.5 -104.5h-217q-189 0 -312.5 104.5t-123.5 262.5t122.5 256t313.5 98h217q191 0 313 -98t122 -256zM697 538h-217q-93 0 -153 -49.5t-60 -126.5t60 -124.5t153 -47.5h217q93 0 153 47.5t60 124.5t-60.5 126.5t-152.5 49.5zM1111 725
l-771 -722h-269l779 722h261z" />
    <glyph glyph-name="ugrave" unicode="&#xf9;" horiz-adv-x="1044" 
d="M997 332q0 -328 -450 -328h-47q-450 0 -450 328v393h223v-393q0 -98 86 -126q46 -16 188 -16q113 0 161 24q65 31 65 118v393h224v-393zM414 849h109l81 -110h-82z" />
    <glyph glyph-name="uacute" unicode="&#xfa;" horiz-adv-x="1044" 
d="M997 332q0 -328 -450 -328h-47q-450 0 -450 328v393h223v-393q0 -98 86 -126q46 -16 188 -16q113 0 161 24q65 31 65 118v393h224v-393zM631 849h-109l-82 -110h82z" />
    <glyph glyph-name="ucircumflex" unicode="&#xfb;" horiz-adv-x="1044" 
d="M997 332q0 -328 -450 -328h-47q-450 0 -450 328v393h223v-393q0 -98 86 -126q46 -16 188 -16q113 0 161 24q65 31 65 118v393h224v-393zM441 846h130l73 -102h-84l-55 65l-52 -65h-84z" />
    <glyph glyph-name="udieresis" unicode="&#xfc;" horiz-adv-x="1044" 
d="M997 332q0 -328 -450 -328h-47q-450 0 -450 328v393h223v-393q0 -98 86 -126q46 -16 188 -16q113 0 161 24q65 31 65 118v393h224v-393zM605 842q20 0 36 -12.5t16 -31.5q0 -20 -16 -32t-36 -12q-21 0 -37 12t-16 32q0 19 16 31.5t37 12.5zM435 842q20 0 36 -12.5
t16 -31.5q0 -20 -16 -32t-36 -12q-21 0 -37 12t-16 32t16 32t37 12z" />
    <glyph glyph-name="yacute" unicode="&#xfd;" horiz-adv-x="1107" 
d="M1098 725l-428 -482v-239h-224v240l-441 481h286l270 -293l252 293h285zM691 849h-109l-82 -110h82z" />
    <glyph glyph-name="thorn" unicode="&#xfe;" 
 />
    <glyph glyph-name="ydieresis" unicode="&#xff;" horiz-adv-x="1098" 
d="M1098 725l-428 -482v-239h-224v240l-441 481h286l270 -293l252 293h285zM605 842q20 0 36 -12.5t16 -31.5q0 -20 -16 -32t-36 -12q-21 0 -37 12t-16 32q0 19 16 31.5t37 12.5zM435 842q20 0 36 -12.5t16 -31.5q0 -20 -16 -32t-36 -12q-21 0 -37 12t-16 32t16 32t37 12z
" />
    <glyph glyph-name="Amacron" unicode="&#x100;" 
 />
    <glyph glyph-name="amacron" unicode="&#x101;" 
 />
    <glyph glyph-name="Abreve" unicode="&#x102;" 
 />
    <glyph glyph-name="abreve" unicode="&#x103;" 
 />
    <glyph glyph-name="Aogonek" unicode="&#x104;" 
 />
    <glyph glyph-name="aogonek" unicode="&#x105;" 
 />
    <glyph glyph-name="Cacute" unicode="&#x106;" 
 />
    <glyph glyph-name="cacute" unicode="&#x107;" 
 />
    <glyph glyph-name="Ccircumflex" unicode="&#x108;" 
 />
    <glyph glyph-name="ccircumflex" unicode="&#x109;" 
 />
    <glyph glyph-name="Cdot" unicode="&#x10a;" 
 />
    <glyph glyph-name="cdot" unicode="&#x10b;" 
 />
    <glyph glyph-name="Ccaron" unicode="&#x10c;" 
 />
    <glyph glyph-name="ccaron" unicode="&#x10d;" 
 />
    <glyph glyph-name="Dcaron" unicode="&#x10e;" 
 />
    <glyph glyph-name="dcaron" unicode="&#x10f;" 
 />
    <glyph glyph-name="Dslash" unicode="&#x110;" 
 />
    <glyph glyph-name="dcroat" unicode="&#x111;" 
 />
    <glyph glyph-name="Emacron" unicode="&#x112;" 
 />
    <glyph glyph-name="emacron" unicode="&#x113;" 
 />
    <glyph glyph-name="Ebreve" unicode="&#x114;" 
 />
    <glyph glyph-name="ebreve" unicode="&#x115;" 
 />
    <glyph glyph-name="Edot" unicode="&#x116;" 
 />
    <glyph glyph-name="edot" unicode="&#x117;" 
 />
    <glyph glyph-name="Eogonek" unicode="&#x118;" 
 />
    <glyph glyph-name="eogonek" unicode="&#x119;" 
 />
    <glyph glyph-name="Ecaron" unicode="&#x11a;" 
 />
    <glyph glyph-name="ecaron" unicode="&#x11b;" 
 />
    <glyph glyph-name="Gcircumflex" unicode="&#x11c;" 
 />
    <glyph glyph-name="gcircumflex" unicode="&#x11d;" 
 />
    <glyph glyph-name="Gbreve" unicode="&#x11e;" 
 />
    <glyph glyph-name="gbreve" unicode="&#x11f;" 
 />
    <glyph glyph-name="Gdot" unicode="&#x120;" 
 />
    <glyph glyph-name="gdot" unicode="&#x121;" 
 />
    <glyph glyph-name="Gcedilla" unicode="&#x122;" 
 />
    <glyph glyph-name="gcedilla" unicode="&#x123;" 
 />
    <glyph glyph-name="Hcircumflex" unicode="&#x124;" 
 />
    <glyph glyph-name="hcircumflex" unicode="&#x125;" 
 />
    <glyph glyph-name="Hbar" unicode="&#x126;" 
 />
    <glyph glyph-name="hbar" unicode="&#x127;" 
 />
    <glyph glyph-name="Itilde" unicode="&#x128;" 
 />
    <glyph glyph-name="itilde" unicode="&#x129;" 
 />
    <glyph glyph-name="Imacron" unicode="&#x12a;" 
 />
    <glyph glyph-name="imacron" unicode="&#x12b;" 
 />
    <glyph glyph-name="Ibreve" unicode="&#x12c;" 
 />
    <glyph glyph-name="ibreve" unicode="&#x12d;" 
 />
    <glyph glyph-name="Iogonek" unicode="&#x12e;" 
 />
    <glyph glyph-name="iogonek" unicode="&#x12f;" 
 />
    <glyph glyph-name="Idotaccent" unicode="&#x130;" 
 />
    <glyph glyph-name="dotlessi" unicode="&#x131;" horiz-adv-x="1000" 
 />
    <glyph glyph-name="IJ" unicode="&#x132;" 
 />
    <glyph glyph-name="ij" unicode="&#x133;" 
 />
    <glyph glyph-name="Jcircumflex" unicode="&#x134;" 
 />
    <glyph glyph-name="jcircumflex" unicode="&#x135;" 
 />
    <glyph glyph-name="Kcedilla" unicode="&#x136;" 
 />
    <glyph glyph-name="kcedilla" unicode="&#x137;" 
 />
    <glyph glyph-name="kgreenlandic" unicode="&#x138;" 
 />
    <glyph glyph-name="Lacute" unicode="&#x139;" 
 />
    <glyph glyph-name="lacute" unicode="&#x13a;" 
 />
    <glyph glyph-name="Lcedilla" unicode="&#x13b;" 
 />
    <glyph glyph-name="lcedilla" unicode="&#x13c;" 
 />
    <glyph glyph-name="Lcaron" unicode="&#x13d;" 
 />
    <glyph glyph-name="lcaron" unicode="&#x13e;" 
 />
    <glyph glyph-name="Ldot" unicode="&#x13f;" 
 />
    <glyph glyph-name="ldot" unicode="&#x140;" 
 />
    <glyph glyph-name="Lslash" unicode="&#x141;" 
 />
    <glyph glyph-name="lslash" unicode="&#x142;" 
 />
    <glyph glyph-name="Nacute" unicode="&#x143;" 
 />
    <glyph glyph-name="nacute" unicode="&#x144;" 
 />
    <glyph glyph-name="Ncedilla" unicode="&#x145;" 
 />
    <glyph glyph-name="ncedilla" unicode="&#x146;" 
 />
    <glyph glyph-name="Ncaron" unicode="&#x147;" 
 />
    <glyph glyph-name="ncaron" unicode="&#x148;" 
 />
    <glyph glyph-name="napostrophe" unicode="&#x149;" 
 />
    <glyph glyph-name="Eng" unicode="&#x14a;" 
 />
    <glyph glyph-name="eng" unicode="&#x14b;" 
 />
    <glyph glyph-name="Omacron" unicode="&#x14c;" 
 />
    <glyph glyph-name="omacron" unicode="&#x14d;" 
 />
    <glyph glyph-name="Obreve" unicode="&#x14e;" 
 />
    <glyph glyph-name="obreve" unicode="&#x14f;" 
 />
    <glyph glyph-name="Odblacute" unicode="&#x150;" 
 />
    <glyph glyph-name="odblacute" unicode="&#x151;" 
 />
    <glyph glyph-name="OE" unicode="&#x152;" horiz-adv-x="1696" 
d="M1115 371q0 -158 -123.5 -262.5t-311.5 -104.5h-217q-189 0 -312.5 104.5t-123.5 262.5t122.5 256t313.5 98h217q191 0 313 -98t122 -256zM680 538h-217q-93 0 -153 -49.5t-60 -126.5t60 -124.5t153 -47.5h217q93 0 153 47.5t60 124.5t-60.5 126.5t-152.5 49.5zM1677 190
l-144 -186h-639v721h783l-144 -187h-415v-76h524l-144 -186h-380v-86h559z" />
    <glyph glyph-name="oe" unicode="&#x153;" horiz-adv-x="1702" 
d="M1115 371q0 -158 -123.5 -262.5t-311.5 -104.5h-217q-189 0 -312.5 104.5t-123.5 262.5t122.5 256t313.5 98h217q191 0 313 -98t122 -256zM680 538h-217q-93 0 -153 -49.5t-60 -126.5t60 -124.5t153 -47.5h217q93 0 153 47.5t60 124.5t-60.5 126.5t-152.5 49.5zM1677 190
l-144 -186h-639v721h783l-144 -187h-415v-76h524l-144 -186h-380v-86h559z" />
    <glyph glyph-name="Racute" unicode="&#x154;" 
 />
    <glyph glyph-name="racute" unicode="&#x155;" 
 />
    <glyph glyph-name="Rcedilla" unicode="&#x156;" 
 />
    <glyph glyph-name="rcedilla" unicode="&#x157;" 
 />
    <glyph glyph-name="Rcaron" unicode="&#x158;" 
 />
    <glyph glyph-name="rcaron" unicode="&#x159;" 
 />
    <glyph glyph-name="Sacute" unicode="&#x15a;" 
 />
    <glyph glyph-name="sacute" unicode="&#x15b;" 
 />
    <glyph glyph-name="Scircumflex" unicode="&#x15c;" 
 />
    <glyph glyph-name="scircumflex" unicode="&#x15d;" 
 />
    <glyph glyph-name="Scedilla" unicode="&#x15e;" 
 />
    <glyph glyph-name="scedilla" unicode="&#x15f;" 
 />
    <glyph glyph-name="Scaron" unicode="&#x160;" 
 />
    <glyph glyph-name="scaron" unicode="&#x161;" 
 />
    <glyph glyph-name="Tcedilla" unicode="&#x162;" 
 />
    <glyph glyph-name="tcedilla" unicode="&#x163;" 
 />
    <glyph glyph-name="Tcaron" unicode="&#x164;" 
 />
    <glyph glyph-name="tcaron" unicode="&#x165;" 
 />
    <glyph glyph-name="Tbar" unicode="&#x166;" 
 />
    <glyph glyph-name="tbar" unicode="&#x167;" 
 />
    <glyph glyph-name="Utilde" unicode="&#x168;" 
 />
    <glyph glyph-name="utilde" unicode="&#x169;" 
 />
    <glyph glyph-name="Umacron" unicode="&#x16a;" 
 />
    <glyph glyph-name="umacron" unicode="&#x16b;" 
 />
    <glyph glyph-name="Ubreve" unicode="&#x16c;" 
 />
    <glyph glyph-name="ubreve" unicode="&#x16d;" 
 />
    <glyph glyph-name="Uring" unicode="&#x16e;" 
 />
    <glyph glyph-name="uring" unicode="&#x16f;" 
 />
    <glyph glyph-name="Udblacute" unicode="&#x170;" 
 />
    <glyph glyph-name="udblacute" unicode="&#x171;" 
 />
    <glyph glyph-name="Uogonek" unicode="&#x172;" 
 />
    <glyph glyph-name="uogonek" unicode="&#x173;" 
 />
    <glyph glyph-name="Wcircumflex" unicode="&#x174;" 
 />
    <glyph glyph-name="wcircumflex" unicode="&#x175;" 
 />
    <glyph glyph-name="Ycircumflex" unicode="&#x176;" 
 />
    <glyph glyph-name="ycircumflex" unicode="&#x177;" 
 />
    <glyph glyph-name="Ydieresis" unicode="&#x178;" horiz-adv-x="1098" 
d="M1098 725l-428 -482v-239h-224v240l-441 481h286l270 -293l252 293h285zM605 842q20 0 36 -12.5t16 -31.5q0 -20 -16 -32t-36 -12q-21 0 -37 12t-16 32q0 19 16 31.5t37 12.5zM435 842q20 0 36 -12.5t16 -31.5q0 -20 -16 -32t-36 -12q-21 0 -37 12t-16 32t16 32t37 12z
" />
    <glyph glyph-name="Zacute" unicode="&#x179;" 
 />
    <glyph glyph-name="zacute" unicode="&#x17a;" 
 />
    <glyph glyph-name="Zdot" unicode="&#x17b;" 
 />
    <glyph glyph-name="zdot" unicode="&#x17c;" 
 />
    <glyph glyph-name="Zcaron" unicode="&#x17d;" 
 />
    <glyph glyph-name="zcaron" unicode="&#x17e;" 
 />
    <glyph glyph-name="longs" unicode="&#x17f;" 
 />
    <glyph glyph-name="glyph360" 
 />
    <glyph glyph-name="florin" unicode="&#x192;" 
 />
    <glyph glyph-name="Aringacute" unicode="&#x1fa;" 
 />
    <glyph glyph-name="aringacute" unicode="&#x1fb;" 
 />
    <glyph glyph-name="AEacute" unicode="&#x1fc;" 
 />
    <glyph glyph-name="aeacute" unicode="&#x1fd;" 
 />
    <glyph glyph-name="Oslashacute" unicode="&#x1fe;" 
 />
    <glyph glyph-name="oslashacute" unicode="&#x1ff;" 
 />
    <glyph glyph-name="circumflex" unicode="&#x2c6;" horiz-adv-x="728" 
d="M441 846h130l73 -102h-84l-55 65l-52 -65h-84z" />
    <glyph glyph-name="caron" unicode="&#x2c7;" 
 />
    <glyph glyph-name="macron" unicode="&#x2c9;" 
 />
    <glyph glyph-name="breve" unicode="&#x2d8;" 
 />
    <glyph glyph-name="dotaccent" unicode="&#x2d9;" 
 />
    <glyph glyph-name="ring" unicode="&#x2da;" horiz-adv-x="781" 
d="M580 880q37 0 65 -24.5t28 -61.5q0 -38 -27.5 -62.5t-65.5 -24.5t-66 24.5t-28 62.5q0 37 28 61.5t66 24.5zM580 849q-25 0 -42.5 -15.5t-17.5 -39.5t17.5 -39.5t42.5 -15.5q23 0 41 15.5t18 39.5q0 23 -18 39t-41 16z" />
    <glyph glyph-name="ogonek" unicode="&#x2db;" 
 />
    <glyph glyph-name="tilde" unicode="&#x2dc;" horiz-adv-x="813" 
d="M414 750h-15q3 99 90 99q34 0 84.5 -26.5t70.5 -26.5q33 0 45 53h15q0 -64 -47 -89q-21 -11 -44 -11q-34 0 -85.5 27t-68.5 27q-23 0 -34 -19q-4 -6 -11 -34z" />
    <glyph glyph-name="hungarumlaut" unicode="&#x2dd;" 
 />
    <glyph glyph-name="glyph377" 
 />
    <glyph glyph-name="tonos" unicode="&#x384;" 
 />
    <glyph glyph-name="dieresistonos" unicode="&#x385;" 
 />
    <glyph glyph-name="Alphatonos" unicode="&#x386;" 
 />
    <glyph glyph-name="anoteleia" unicode="&#x387;" 
 />
    <glyph glyph-name="Epsilontonos" unicode="&#x388;" 
 />
    <glyph glyph-name="Etatonos" unicode="&#x389;" 
 />
    <glyph glyph-name="Iotatonos" unicode="&#x38a;" 
 />
    <glyph glyph-name="Omicrontonos" unicode="&#x38c;" 
 />
    <glyph glyph-name="Upsilontonos" unicode="&#x38e;" 
 />
    <glyph glyph-name="Omegatonos" unicode="&#x38f;" 
 />
    <glyph glyph-name="iotadieresistonos" unicode="&#x390;" 
 />
    <glyph glyph-name="Alpha" unicode="&#x391;" 
 />
    <glyph glyph-name="Beta" unicode="&#x392;" 
 />
    <glyph glyph-name="Gamma" unicode="&#x393;" 
 />
    <glyph glyph-name="Delta" unicode="&#x394;" 
 />
    <glyph glyph-name="Delta" unicode="&#x2206;" 
 />
    <glyph glyph-name="Epsilon" unicode="&#x395;" 
 />
    <glyph glyph-name="Zeta" unicode="&#x396;" 
 />
    <glyph glyph-name="Eta" unicode="&#x397;" 
 />
    <glyph glyph-name="Theta" unicode="&#x398;" 
 />
    <glyph glyph-name="Theta" unicode="&#x472;" 
 />
    <glyph glyph-name="Iota" unicode="&#x399;" 
 />
    <glyph glyph-name="Kappa" unicode="&#x39a;" 
 />
    <glyph glyph-name="Lambda" unicode="&#x39b;" 
 />
    <glyph glyph-name="Mu" unicode="&#x39c;" 
 />
    <glyph glyph-name="Nu" unicode="&#x39d;" 
 />
    <glyph glyph-name="Xi" unicode="&#x39e;" 
 />
    <glyph glyph-name="Omicron" unicode="&#x39f;" 
 />
    <glyph glyph-name="Pi" unicode="&#x3a0;" 
 />
    <glyph glyph-name="Rho" unicode="&#x3a1;" 
 />
    <glyph glyph-name="Sigma" unicode="&#x3a3;" 
 />
    <glyph glyph-name="Tau" unicode="&#x3a4;" 
 />
    <glyph glyph-name="Upsilon" unicode="&#x3a5;" 
 />
    <glyph glyph-name="Phi" unicode="&#x3a6;" 
 />
    <glyph glyph-name="Chi" unicode="&#x3a7;" 
 />
    <glyph glyph-name="Psi" unicode="&#x3a8;" 
 />
    <glyph glyph-name="Psi" unicode="&#x470;" 
 />
    <glyph glyph-name="Omega" unicode="&#x3a9;" 
 />
    <glyph glyph-name="Omega" unicode="&#x2126;" 
 />
    <glyph glyph-name="Iotadieresis" unicode="&#x3aa;" 
 />
    <glyph glyph-name="Upsilondieresis" unicode="&#x3ab;" 
 />
    <glyph glyph-name="alphatonos" unicode="&#x3ac;" 
 />
    <glyph glyph-name="epsilontonos" unicode="&#x3ad;" 
 />
    <glyph glyph-name="etatonos" unicode="&#x3ae;" 
 />
    <glyph glyph-name="iotatonos" unicode="&#x3af;" 
 />
    <glyph glyph-name="upsilondieresistonos" unicode="&#x3b0;" 
 />
    <glyph glyph-name="alpha" unicode="&#x3b1;" 
 />
    <glyph glyph-name="beta" unicode="&#x3b2;" 
 />
    <glyph glyph-name="gamma" unicode="&#x3b3;" 
 />
    <glyph glyph-name="delta" unicode="&#x3b4;" 
 />
    <glyph glyph-name="epsilon" unicode="&#x3b5;" 
 />
    <glyph glyph-name="zeta" unicode="&#x3b6;" 
 />
    <glyph glyph-name="eta" unicode="&#x3b7;" 
 />
    <glyph glyph-name="theta" unicode="&#x3b8;" 
 />
    <glyph glyph-name="theta" unicode="&#x473;" 
 />
    <glyph glyph-name="iota" unicode="&#x3b9;" 
 />
    <glyph glyph-name="kappa" unicode="&#x3ba;" 
 />
    <glyph glyph-name="lambda" unicode="&#x3bb;" 
 />
    <glyph glyph-name="mu" unicode="&#x3bc;" 
 />
    <glyph glyph-name="nu" unicode="&#x3bd;" 
 />
    <glyph glyph-name="xi" unicode="&#x3be;" 
 />
    <glyph glyph-name="omicron" unicode="&#x3bf;" 
 />
    <glyph glyph-name="pi" unicode="&#x3c0;" 
 />
    <glyph glyph-name="rho" unicode="&#x3c1;" 
 />
    <glyph glyph-name="sigma1" unicode="&#x3c2;" 
 />
    <glyph glyph-name="sigma" unicode="&#x3c3;" 
 />
    <glyph glyph-name="tau" unicode="&#x3c4;" 
 />
    <glyph glyph-name="upsilon" unicode="&#x3c5;" 
 />
    <glyph glyph-name="phi" unicode="&#x3c6;" 
 />
    <glyph glyph-name="chi" unicode="&#x3c7;" 
 />
    <glyph glyph-name="psi" unicode="&#x3c8;" 
 />
    <glyph glyph-name="psi" unicode="&#x471;" 
 />
    <glyph glyph-name="omega" unicode="&#x3c9;" 
 />
    <glyph glyph-name="iotadieresis" unicode="&#x3ca;" 
 />
    <glyph glyph-name="upsilondieresis" unicode="&#x3cb;" 
 />
    <glyph glyph-name="omicrontonos" unicode="&#x3cc;" 
 />
    <glyph glyph-name="upsilontonos" unicode="&#x3cd;" 
 />
    <glyph glyph-name="omegatonos" unicode="&#x3ce;" 
 />
    <glyph glyph-name="glyph450" 
 />
    <glyph glyph-name="afii10023" unicode="&#x401;" 
 />
    <glyph glyph-name="afii10051" unicode="&#x402;" 
 />
    <glyph glyph-name="afii10052" unicode="&#x403;" 
 />
    <glyph glyph-name="afii10053" unicode="&#x404;" 
 />
    <glyph glyph-name="afii10054" unicode="&#x405;" 
 />
    <glyph glyph-name="afii10055" unicode="&#x406;" 
 />
    <glyph glyph-name="afii10056" unicode="&#x407;" 
 />
    <glyph glyph-name="afii10057" unicode="&#x408;" 
 />
    <glyph glyph-name="afii10058" unicode="&#x409;" 
 />
    <glyph glyph-name="afii10059" unicode="&#x40a;" 
 />
    <glyph glyph-name="afii10060" unicode="&#x40b;" 
 />
    <glyph glyph-name="afii10061" unicode="&#x40c;" 
 />
    <glyph glyph-name="afii10062" unicode="&#x40e;" 
 />
    <glyph glyph-name="afii10145" unicode="&#x40f;" 
 />
    <glyph glyph-name="afii10017" unicode="&#x410;" 
 />
    <glyph glyph-name="afii10018" unicode="&#x411;" 
 />
    <glyph glyph-name="afii10019" unicode="&#x412;" 
 />
    <glyph glyph-name="afii10020" unicode="&#x413;" 
 />
    <glyph glyph-name="afii10021" unicode="&#x414;" 
 />
    <glyph glyph-name="afii10022" unicode="&#x415;" 
 />
    <glyph glyph-name="afii10024" unicode="&#x416;" 
 />
    <glyph glyph-name="afii10025" unicode="&#x417;" 
 />
    <glyph glyph-name="afii10026" unicode="&#x418;" 
 />
    <glyph glyph-name="afii10027" unicode="&#x419;" 
 />
    <glyph glyph-name="afii10028" unicode="&#x41a;" 
 />
    <glyph glyph-name="afii10029" unicode="&#x41b;" 
 />
    <glyph glyph-name="afii10030" unicode="&#x41c;" 
 />
    <glyph glyph-name="afii10031" unicode="&#x41d;" 
 />
    <glyph glyph-name="afii10032" unicode="&#x41e;" 
 />
    <glyph glyph-name="afii10033" unicode="&#x41f;" 
 />
    <glyph glyph-name="afii10034" unicode="&#x420;" 
 />
    <glyph glyph-name="afii10035" unicode="&#x421;" 
 />
    <glyph glyph-name="afii10036" unicode="&#x422;" 
 />
    <glyph glyph-name="afii10037" unicode="&#x423;" 
 />
    <glyph glyph-name="afii10038" unicode="&#x424;" 
 />
    <glyph glyph-name="afii10039" unicode="&#x425;" 
 />
    <glyph glyph-name="afii10040" unicode="&#x426;" 
 />
    <glyph glyph-name="afii10041" unicode="&#x427;" 
 />
    <glyph glyph-name="afii10042" unicode="&#x428;" 
 />
    <glyph glyph-name="afii10043" unicode="&#x429;" 
 />
    <glyph glyph-name="afii10044" unicode="&#x42a;" 
 />
    <glyph glyph-name="afii10045" unicode="&#x42b;" 
 />
    <glyph glyph-name="afii10046" unicode="&#x42c;" 
 />
    <glyph glyph-name="afii10047" unicode="&#x42d;" 
 />
    <glyph glyph-name="afii10048" unicode="&#x42e;" 
 />
    <glyph glyph-name="afii10049" unicode="&#x42f;" 
 />
    <glyph glyph-name="afii10065" unicode="&#x430;" 
 />
    <glyph glyph-name="afii10066" unicode="&#x431;" 
 />
    <glyph glyph-name="afii10067" unicode="&#x432;" 
 />
    <glyph glyph-name="afii10068" unicode="&#x433;" 
 />
    <glyph glyph-name="afii10069" unicode="&#x434;" 
 />
    <glyph glyph-name="afii10070" unicode="&#x435;" 
 />
    <glyph glyph-name="afii10072" unicode="&#x436;" 
 />
    <glyph glyph-name="afii10073" unicode="&#x437;" 
 />
    <glyph glyph-name="afii10074" unicode="&#x438;" 
 />
    <glyph glyph-name="afii10075" unicode="&#x439;" 
 />
    <glyph glyph-name="afii10076" unicode="&#x43a;" 
 />
    <glyph glyph-name="afii10077" unicode="&#x43b;" 
 />
    <glyph glyph-name="afii10078" unicode="&#x43c;" 
 />
    <glyph glyph-name="afii10079" unicode="&#x43d;" 
 />
    <glyph glyph-name="afii10080" unicode="&#x43e;" 
 />
    <glyph glyph-name="afii10081" unicode="&#x43f;" 
 />
    <glyph glyph-name="afii10082" unicode="&#x440;" 
 />
    <glyph glyph-name="afii10083" unicode="&#x441;" 
 />
    <glyph glyph-name="afii10084" unicode="&#x442;" 
 />
    <glyph glyph-name="afii10085" unicode="&#x443;" 
 />
    <glyph glyph-name="afii10086" unicode="&#x444;" 
 />
    <glyph glyph-name="afii10087" unicode="&#x445;" 
 />
    <glyph glyph-name="afii10088" unicode="&#x446;" 
 />
    <glyph glyph-name="afii10089" unicode="&#x447;" 
 />
    <glyph glyph-name="afii10090" unicode="&#x448;" 
 />
    <glyph glyph-name="afii10091" unicode="&#x449;" 
 />
    <glyph glyph-name="afii10092" unicode="&#x44a;" 
 />
    <glyph glyph-name="afii10093" unicode="&#x44b;" 
 />
    <glyph glyph-name="afii10094" unicode="&#x44c;" 
 />
    <glyph glyph-name="afii10095" unicode="&#x44d;" 
 />
    <glyph glyph-name="afii10096" unicode="&#x44e;" 
 />
    <glyph glyph-name="afii10097" unicode="&#x44f;" 
 />
    <glyph glyph-name="afii10071" unicode="&#x451;" 
 />
    <glyph glyph-name="afii10099" unicode="&#x452;" 
 />
    <glyph glyph-name="afii10100" unicode="&#x453;" 
 />
    <glyph glyph-name="afii10101" unicode="&#x454;" 
 />
    <glyph glyph-name="afii10102" unicode="&#x455;" 
 />
    <glyph glyph-name="afii10103" unicode="&#x456;" 
 />
    <glyph glyph-name="afii10104" unicode="&#x457;" 
 />
    <glyph glyph-name="afii10105" unicode="&#x458;" 
 />
    <glyph glyph-name="afii10106" unicode="&#x459;" 
 />
    <glyph glyph-name="afii10107" unicode="&#x45a;" 
 />
    <glyph glyph-name="afii10108" unicode="&#x45b;" 
 />
    <glyph glyph-name="afii10109" unicode="&#x45c;" 
 />
    <glyph glyph-name="afii10110" unicode="&#x45e;" 
 />
    <glyph glyph-name="afii10193" unicode="&#x45f;" 
 />
    <glyph glyph-name="afii10050" unicode="&#x490;" 
 />
    <glyph glyph-name="afii10098" unicode="&#x491;" 
 />
    <glyph glyph-name="glyph545" 
 />
    <glyph glyph-name="Wgrave" unicode="&#x1e80;" 
 />
    <glyph glyph-name="wgrave" unicode="&#x1e81;" 
 />
    <glyph glyph-name="Wacute" unicode="&#x1e82;" 
 />
    <glyph glyph-name="wacute" unicode="&#x1e83;" 
 />
    <glyph glyph-name="Wdieresis" unicode="&#x1e84;" 
 />
    <glyph glyph-name="wdieresis" unicode="&#x1e85;" 
 />
    <glyph glyph-name="Ygrave" unicode="&#x1ef2;" 
 />
    <glyph glyph-name="ygrave" unicode="&#x1ef3;" 
 />
    <glyph glyph-name="glyph554" 
 />
    <glyph glyph-name="endash" unicode="&#x2013;" 
 />
    <glyph glyph-name="emdash" unicode="&#x2014;" 
 />
    <glyph glyph-name="afii00208" unicode="&#x2015;" 
 />
    <glyph glyph-name="underscoredbl" unicode="&#x2017;" 
 />
    <glyph glyph-name="quoteleft" unicode="&#x2018;" horiz-adv-x="315" 
d="M40 819l59 -272h174v272h-233z" />
    <glyph glyph-name="quoteright" unicode="&#x2019;" horiz-adv-x="315" 
d="M268 819l-60 -272h-173v272h233z" />
    <glyph glyph-name="quotesinglbase" unicode="&#x201a;" 
 />
    <glyph glyph-name="quotereversed" unicode="&#x201b;" 
 />
    <glyph glyph-name="quotedblleft" unicode="&#x201c;" horiz-adv-x="579" 
d="M40 819l59 -272h174v272h-233zM310 819l59 -272h174v272h-233z" />
    <glyph glyph-name="quotedblright" unicode="&#x201d;" horiz-adv-x="558" 
d="M268 819l-60 -272h-173v272h233zM538 819l-60 -272h-173v272h233z" />
    <glyph glyph-name="quotedblbase" unicode="&#x201e;" 
 />
    <glyph glyph-name="glyph566" 
 />
    <glyph glyph-name="dagger" unicode="&#x2020;" 
 />
    <glyph glyph-name="daggerdbl" unicode="&#x2021;" 
 />
    <glyph glyph-name="bullet" unicode="&#x2022;" horiz-adv-x="479" 
d="M240 597l62 -141l154 -10l-115 -102l38 -149l-133 78l-130 -82l33 150l-118 98l153 15z" />
    <glyph glyph-name="ellipsis" unicode="&#x2026;" horiz-adv-x="741" 
d="M255 95q0 -41 -32 -67t-82 -26t-82 26t-32 67q0 42 32 68t82 26t82 -26t32 -68zM491 95q0 -41 -32 -67t-82 -26t-82 26t-32 67q0 42 32 68t82 26t82 -26t32 -68zM728 95q0 -41 -32 -67t-82 -26t-82 26t-32 67q0 42 32 68t82 26t82 -26t32 -68z" />
    <glyph glyph-name="glyph571" horiz-adv-x="8" 
 />
    <glyph glyph-name="glyph572" horiz-adv-x="8" 
 />
    <glyph glyph-name="glyph110" horiz-adv-x="8" 
 />
    </font>
</defs>
</svg>
